<?xml version="1.0" standalone="no"?>
<!DOCTYPE svg PUBLIC "-//W3C//DTD SVG 20010904//EN"
 "http://www.w3.org/TR/2001/REC-SVG-20010904/DTD/svg10.dtd">
<svg version="1.0" xmlns="http://www.w3.org/2000/svg"
 width="900.000000pt" height="1480.000000pt" viewBox="0 0 900.000000 1480.000000"
 preserveAspectRatio="xMidYMid meet">

<g transform="translate(0.000000,1480.000000) scale(0.100000,-0.100000)"
fill="#000000" stroke="none">
<path d="M4128 14633 c-69 -207 -280 -828 -283 -831 -1 -1 -193 129 -426 291
-233 161 -452 312 -486 335 l-63 42 5 -27 c3 -16 21 -134 41 -263 20 -129 51
-320 70 -425 19 -104 34 -196 34 -202 0 -7 -44 23 -97 66 -153 123 -347 248
-530 340 -34 17 -67 31 -72 31 -6 0 17 -37 49 -82 151 -211 312 -542 410 -840
12 -38 24 -68 27 -68 3 0 32 16 64 35 82 50 286 145 447 209 665 262 1378 346
2072 246 110 -16 446 -86 511 -106 14 -4 18 7 24 63 36 345 123 711 218 917
20 42 34 76 32 76 -2 0 -46 -35 -97 -77 -147 -122 -340 -323 -474 -496 -12
-15 -25 -27 -28 -27 -3 0 -6 30 -6 66 0 76 -49 856 -54 861 -2 2 -124 -130
-272 -294 -336 -372 -513 -563 -522 -563 -9 0 -104 148 -290 449 -79 129 -170
274 -201 323 l-57 89 -46 -138z"/>
<path d="M4520 13279 c-512 -39 -1049 -186 -1455 -397 -56 -29 -58 -31 -29
-32 46 0 151 -35 210 -69 105 -61 215 -183 278 -308 14 -29 26 -55 26 -57 0
-3 -20 8 -45 25 -76 51 -188 97 -280 115 -162 32 -317 -4 -412 -96 -182 -174
-222 -471 -109 -797 18 -54 45 -124 60 -155 14 -32 23 -58 20 -58 -14 0 -126
95 -181 154 -72 76 -107 133 -140 224 -76 210 -75 445 3 644 13 34 24 63 24
66 0 8 -171 -130 -284 -229 -287 -252 -545 -557 -755 -891 -94 -149 -195 -339
-185 -347 5 -4 92 -20 194 -35 230 -35 216 -30 193 -60 -166 -216 -268 -377
-383 -607 -218 -433 -364 -904 -395 -1268 -6 -69 -5 -83 6 -79 11 4 358 113
616 194 50 15 50 18 23 -85 -55 -215 -80 -470 -80 -806 0 -404 44 -685 175
-1122 31 -100 127 -337 168 -410 12 -21 16 -19 132 81 311 268 639 646 923
1064 l90 133 16 -53 c96 -333 123 -594 113 -1068 -8 -350 -35 -597 -103 -959
-14 -73 -24 -134 -22 -136 2 -2 49 -26 104 -54 415 -208 937 -305 1395 -261
546 53 1060 231 1483 513 48 32 92 55 96 50 9 -10 92 -314 115 -425 l17 -78
29 17 c16 10 90 63 164 118 601 449 996 1043 1166 1753 32 134 69 354 69 415
0 20 4 37 9 37 5 0 78 -77 162 -170 84 -94 156 -167 160 -163 10 10 71 212
103 341 32 124 72 335 92 482 21 160 30 583 15 762 -55 648 -302 1308 -723
1931 -44 64 -83 115 -88 112 -4 -3 -11 -44 -15 -92 -4 -48 -10 -95 -14 -105
-5 -14 -37 16 -154 143 l-148 160 33 27 c94 78 90 70 77 137 -6 33 -22 83 -35
112 -26 54 -93 123 -120 123 -37 0 -162 -71 -209 -118 l-48 -49 -71 53 c-59
45 -257 154 -279 154 -4 0 28 -47 71 -104 42 -58 102 -146 132 -197 51 -85 66
-101 210 -222 143 -121 394 -356 387 -363 -2 -2 -37 10 -78 26 -117 45 -232
63 -414 63 -190 1 -284 -12 -425 -60 l-104 -35 -36 39 c-238 263 -334 364
-406 429 -47 43 -92 91 -101 107 -9 19 -15 55 -14 100 1 83 19 124 93 210 56
64 51 69 -43 41 -70 -21 -172 -73 -229 -116 l-44 -35 -76 50 c-166 109 -449
227 -544 227 -111 0 -259 -54 -389 -142 -68 -46 -197 -155 -197 -167 0 -11
146 -96 243 -141 133 -62 180 -70 477 -80 146 -4 281 -13 301 -19 20 -6 78
-46 130 -90 95 -80 407 -392 467 -468 l33 -42 -72 24 c-166 57 -195 59 -709
60 -455 0 -479 1 -562 22 -169 43 -310 125 -424 246 -105 112 -167 231 -181
349 -3 26 -11 55 -17 63 -7 9 -59 22 -141 35 -190 31 -184 22 -84 121 147 145
303 250 452 304 l59 22 -63 55 c-35 31 -77 67 -93 81 l-30 24 85 62 c259 190
589 331 947 403 l153 30 62 -27 c148 -65 392 -211 629 -376 70 -49 130 -89
133 -89 16 0 68 140 86 231 11 57 24 116 27 131 l7 27 90 -43 c264 -126 629
-390 953 -690 l34 -31 -27 60 c-108 243 -164 408 -195 572 -12 59 -23 118 -26
130 -6 30 -146 150 -274 235 -118 79 -357 199 -501 252 -76 28 -276 90 -390
122 -13 4 -10 -14 17 -91 29 -84 52 -183 67 -295 5 -34 -3 -28 -156 125 -177
176 -263 246 -375 301 -65 32 -87 38 -180 45 -131 10 -400 9 -542 -2z m1874
-2910 c77 -38 146 -69 153 -69 10 0 13 -52 13 -264 l0 -265 -122 -98 c-413
-330 -719 -488 -964 -496 l-66 -2 -55 100 c-30 55 -127 237 -215 404 l-161
304 34 29 c71 59 265 193 392 270 208 126 405 214 585 262 l86 23 90 -65 c50
-35 154 -95 230 -133z m889 19 c75 -246 88 -319 94 -523 4 -139 1 -201 -11
-272 -17 -99 -65 -256 -94 -311 l-18 -34 -53 91 c-60 105 -158 234 -258 341
l-70 75 -7 260 -7 261 108 71 c59 40 142 99 183 132 41 33 78 60 81 60 3 1 27
-68 52 -151z m-385 -1194 c89 -96 168 -291 159 -390 -12 -116 -109 -353 -205
-499 -70 -105 -248 -285 -283 -285 -5 0 -9 53 -9 118 0 65 -5 156 -10 202 -14
112 -41 250 -49 250 -4 0 -32 -21 -62 -47 -109 -93 -251 -170 -435 -233 -64
-22 -118 -39 -119 -38 -12 18 -255 483 -255 488 0 3 32 14 72 23 180 44 360
142 646 356 l122 91 98 9 c53 5 140 7 192 5 l95 -4 43 -46z"/>
<path d="M12 3928 l3 -1033 198 -3 197 -2 0 339 0 339 213 5 c241 6 298 16
422 77 236 115 367 334 367 615 0 336 -181 574 -508 666 -75 22 -101 23 -487
27 l-407 3 2 -1033z m792 622 c122 -47 187 -142 188 -275 0 -136 -49 -222
-164 -282 -51 -27 -58 -28 -235 -31 l-183 -4 0 312 0 313 168 -5 c142 -4 176
-9 226 -28z"/>
<path d="M6211 4886 c-165 -60 -207 -285 -73 -396 154 -127 382 -22 382 175 0
75 -24 128 -78 177 -61 55 -152 73 -231 44z"/>
<path d="M2990 4283 c-288 -48 -494 -229 -581 -513 -31 -98 -33 -290 -6 -390
44 -162 149 -313 274 -396 287 -190 714 -158 961 71 l67 63 -114 115 -114 116
-56 -44 c-95 -74 -160 -99 -277 -103 -134 -5 -193 11 -264 75 -56 50 -95 105
-106 147 l-6 26 500 0 499 0 7 68 c11 119 -17 274 -73 397 -83 180 -259 317
-463 359 -71 15 -189 19 -248 9z m236 -352 c28 -12 69 -41 92 -64 40 -42 82
-110 82 -134 0 -10 -68 -13 -315 -13 -173 0 -315 2 -315 5 0 3 10 26 22 52 39
83 122 149 215 173 59 14 162 6 219 -19z"/>
<path d="M4499 4267 c-74 -25 -118 -58 -171 -128 -39 -53 -42 -53 -53 1 -3 19
-11 52 -16 73 l-10 37 -164 0 -165 0 0 -680 0 -680 188 2 187 3 5 445 c3 304
9 453 17 471 37 84 112 124 217 117 73 -4 99 -19 150 -82 l31 -38 5 -456 5
-457 187 -3 187 -2 3 442 c3 410 4 446 22 478 44 83 104 120 196 120 92 0 159
-43 196 -125 5 -11 11 -220 14 -465 l5 -445 188 -3 187 -2 0 470 c0 519 -3
557 -62 674 -116 231 -411 322 -658 204 -25 -12 -74 -52 -109 -88 l-65 -67
-57 62 c-32 33 -80 73 -107 88 -109 59 -241 72 -353 34z"/>
<path d="M7189 4275 c-149 -30 -270 -97 -374 -207 -121 -128 -181 -274 -192
-463 -8 -135 14 -240 74 -365 83 -173 244 -302 443 -357 91 -25 329 -25 420 0
109 30 242 102 317 171 l67 62 -113 117 -113 117 -57 -44 c-103 -80 -180 -107
-306 -107 -144 0 -232 45 -306 154 -70 106 -113 97 462 97 l501 0 -5 148 c-5
162 -16 209 -76 332 -54 112 -177 234 -291 288 -142 68 -298 87 -451 57z m274
-343 c24 -11 63 -37 87 -58 42 -38 97 -130 85 -142 -9 -9 -625 -15 -625 -6 0
14 53 111 73 132 28 31 96 71 150 88 56 19 172 11 230 -14z"/>
<path d="M2163 4259 c-93 -18 -179 -77 -240 -163 l-20 -29 -18 92 -17 91 -164
0 -164 0 0 -680 0 -680 187 2 187 3 1 385 c0 379 0 386 23 442 56 139 195 208
365 180 l57 -9 0 182 0 182 -46 7 c-57 7 -96 6 -151 -5z"/>
<path d="M8760 4255 c-78 -22 -138 -62 -190 -127 -25 -31 -47 -52 -49 -45 -2
7 -12 46 -20 87 l-16 75 -163 3 -162 2 0 -680 0 -680 188 2 187 3 5 400 5 400
28 57 c55 112 139 154 305 151 l102 -1 0 173 c0 109 -4 176 -10 180 -24 15
-157 15 -210 0z"/>
<path d="M6100 3570 l0 -680 185 0 185 0 0 680 0 680 -185 0 -185 0 0 -680z"/>
<path d="M10 1695 l0 -1005 640 0 640 0 0 190 0 190 -440 0 -440 0 0 815 0
815 -200 0 -200 0 0 -1005z"/>
<path d="M1975 2079 c-162 -25 -286 -88 -402 -204 -67 -68 -89 -99 -126 -176
-56 -116 -77 -209 -77 -336 0 -132 20 -220 76 -332 103 -209 303 -341 562
-371 221 -25 462 50 617 192 l67 61 -118 118 -118 118 -43 -40 c-52 -48 -145
-94 -222 -110 -173 -36 -347 42 -415 185 l-24 51 493 5 c271 3 497 9 502 13
14 15 7 247 -11 321 -57 237 -245 430 -479 490 -76 20 -208 27 -282 15z m240
-358 c70 -34 126 -88 154 -151 l20 -45 -311 -3 c-171 -1 -313 0 -316 3 -8 8
32 86 63 123 31 37 102 81 148 92 18 5 66 8 107 9 63 1 84 -3 135 -28z"/>
<path d="M8205 2081 c-354 -57 -593 -321 -612 -676 -12 -220 61 -415 208 -555
185 -176 473 -238 754 -161 113 31 208 86 315 179 l45 40 -115 119 -115 118
-51 -41 c-220 -177 -523 -141 -633 75 -12 22 -21 46 -21 53 0 10 97 13 490 13
425 0 492 2 501 15 15 21 4 252 -15 325 -75 287 -320 483 -621 500 -44 2 -103
0 -130 -4z m218 -351 c73 -27 129 -78 161 -146 15 -31 25 -58 23 -60 -2 -3
-144 -3 -316 -2 l-312 3 31 62 c54 108 150 162 287 163 49 0 90 -7 126 -20z"/>
<path d="M3460 2063 c-118 -19 -247 -84 -340 -170 -267 -247 -311 -634 -107
-933 130 -189 331 -301 543 -302 149 -1 276 46 369 138 30 30 56 50 58 46 3
-4 10 -32 17 -62 6 -30 14 -63 17 -72 4 -16 21 -18 169 -18 l164 0 0 680 0
680 -164 0 -164 0 -18 -77 c-10 -43 -19 -80 -21 -82 -1 -2 -30 21 -62 52 -64
61 -119 90 -216 113 -56 13 -187 17 -245 7z m314 -361 c75 -34 129 -83 166
-154 31 -56 35 -73 38 -158 3 -79 0 -105 -18 -152 -28 -75 -96 -150 -168 -185
-51 -25 -68 -28 -157 -28 -119 0 -167 18 -243 89 -73 69 -106 147 -106 256 0
169 82 286 237 342 69 25 183 20 251 -10z"/>
<path d="M5045 2055 c-263 -58 -463 -252 -531 -515 -24 -93 -22 -262 5 -363
80 -305 346 -517 651 -519 147 -1 243 27 340 101 l55 42 3 -68 c10 -204 -97
-319 -318 -345 -159 -18 -289 19 -428 124 -35 27 -68 46 -72 41 -23 -26 -200
-275 -200 -281 1 -14 110 -94 187 -138 105 -60 210 -92 347 -104 127 -12 273
-2 366 26 180 53 355 191 423 334 73 151 70 123 74 933 l4 727 -169 0 -169 0
-18 -80 -18 -81 -41 40 c-128 123 -302 168 -491 126z m295 -341 c68 -20 115
-50 164 -104 65 -72 81 -119 81 -240 0 -96 -3 -110 -28 -158 -37 -70 -97 -128
-166 -161 -48 -22 -69 -26 -151 -26 -82 0 -103 4 -151 26 -69 33 -129 91 -166
161 -25 48 -28 62 -28 158 0 121 16 168 81 240 96 106 229 144 364 104z"/>
<path d="M6132 1603 l3 -448 28 -80 c38 -108 85 -182 158 -249 121 -112 277
-168 469 -167 364 0 612 202 660 536 5 39 10 247 10 463 l0 392 -189 0 -190 0
-3 -407 c-3 -404 -3 -408 -27 -460 -28 -64 -91 -124 -153 -148 -68 -25 -187
-18 -253 15 -55 28 -107 95 -125 158 -6 22 -10 196 -10 440 l0 402 -191 0
-190 0 3 -447z"/>
</g>
</svg>
